<svg width="27" height="28" viewBox="0 0 27 28" fill="none" xmlns="http://www.w3.org/2000/svg">
<path fill-rule="evenodd" clip-rule="evenodd" d="M3.3709 5.68373L3.37111 5.67636C3.38459 5.2677 3.49332 4.84594 3.67373 4.48147C3.81779 4.19039 4.01625 3.93385 4.2929 3.74755C4.56251 3.56598 4.97249 3.40602 5.61876 3.40602C6.26504 3.40602 6.67503 3.56598 6.94463 3.74755C7.29191 3.98143 7.52066 4.33795 7.66181 4.70578C6.99178 4.88348 6.43503 5.19663 5.98466 5.60278C5.28641 6.23247 4.92451 7.01209 4.73438 7.63151C4.51798 8.33647 4.71127 9.02346 5.13282 9.50346C5.5374 9.96413 6.12973 10.2183 6.74269 10.2183H11.2384C11.8514 10.2183 12.4437 9.96413 12.8483 9.50346C13.2698 9.02346 13.4631 8.33647 13.2468 7.63151C13.0566 7.01209 12.6947 6.23247 11.9965 5.60278C11.4726 5.1304 10.8049 4.78381 9.98244 4.62984C9.90488 4.28666 9.77935 3.88013 9.57435 3.46596C9.29694 2.9055 8.8632 2.3105 8.19153 1.85815C7.51282 1.40107 6.65839 1.13525 5.61876 1.13525C4.57915 1.13525 3.72472 1.40107 3.046 1.85815C2.37433 2.3105 1.94058 2.9055 1.66317 3.46596C1.38798 4.02197 1.25597 4.56424 1.19102 4.95793C1.15221 5.19315 1.12447 5.43287 1.12306 5.67171L1.12305 14.7599C1.12317 14.8627 1.12535 14.9644 1.13276 15.1477C1.14224 15.3823 1.16104 15.7135 1.19835 16.1094C1.2725 16.8958 1.42206 17.963 1.72826 19.0456C2.03072 20.115 2.50927 21.2843 3.29025 22.2046C4.09981 23.1588 5.23886 23.843 6.74269 23.843V24.9783C6.74269 25.6054 7.2459 26.1137 7.86662 26.1137C8.48736 26.1137 8.99055 25.6054 8.99055 24.9783V23.843H17.982V24.9783C17.982 25.6054 18.4852 26.1137 19.1059 26.1137C19.7267 26.1137 20.2298 25.6054 20.2298 24.9783V23.843C22.5765 23.843 23.9395 22.2148 24.6807 20.5993C25.4191 18.99 25.6847 17.1297 25.785 15.9909C25.9034 14.6445 24.8237 13.6245 23.6016 13.6245H3.3709V5.68373ZM3.43621 15.8953C3.50258 16.5989 3.63399 17.518 3.88962 18.4218C4.14912 19.3393 4.51353 20.157 4.99696 20.7269C5.45183 21.2629 5.99866 21.5722 6.74269 21.5722H20.2298C21.312 21.5722 22.0703 20.8888 22.6413 19.6443C23.1963 18.4347 23.4371 16.9466 23.5363 15.8953H3.43621ZM10.4995 7.29675C10.7003 7.47789 10.8518 7.70418 10.9643 7.94757H7.0168C7.1293 7.70418 7.28076 7.47789 7.48163 7.29675C7.75608 7.04925 8.20241 6.81218 8.99055 6.81218C9.77869 6.81218 10.225 7.04925 10.4995 7.29675Z" fill="black"/>
</svg>
