<svg width="27" height="28" viewBox="0 0 27 28" fill="none" xmlns="http://www.w3.org/2000/svg">
<g clip-path="url(#clip0_2493_802)">
<path fill-rule="evenodd" clip-rule="evenodd" d="M2.24786 6.81214C2.24786 6.18509 1.74465 5.67676 1.12393 5.67676C0.5032 5.67676 0 6.18509 0 6.81214V20.4368C0 21.0638 0.5032 21.5721 1.12393 21.5721C1.74465 21.5721 2.24786 21.0638 2.24786 20.4368V18.166H24.7264V20.4368C24.7264 21.0638 25.2296 21.5721 25.8504 21.5721C26.4711 21.5721 26.9743 21.0638 26.9743 20.4368V11.3537C26.9743 8.84546 24.9615 6.81214 22.4786 6.81214H14.6111C13.3696 6.81214 12.3632 7.8288 12.3632 9.08291V15.8952H2.24786V6.81214ZM24.7264 11.3537V15.8952H14.6111V9.08291H22.4786C23.7201 9.08291 24.7264 10.0996 24.7264 11.3537Z" fill="black"/>
<path fill-rule="evenodd" clip-rule="evenodd" d="M7.30485 14.7597C9.4774 14.7597 11.2386 12.9806 11.2386 10.7859C11.2386 8.59116 9.4774 6.81201 7.30485 6.81201C5.13229 6.81201 3.37109 8.59116 3.37109 10.7859C3.37109 12.9806 5.13229 14.7597 7.30485 14.7597ZM7.30485 12.5797C6.32413 12.5797 5.52911 11.7766 5.52911 10.7859C5.52911 9.79514 6.32413 8.99202 7.30485 8.99202C8.28556 8.99202 9.08059 9.79514 9.08059 10.7859C9.08059 11.7766 8.28556 12.5797 7.30485 12.5797Z" fill="black"/>
</g>
<defs>
<clipPath id="clip0_2493_802">
<rect width="26.9743" height="27.2492" fill="white"/>
</clipPath>
</defs>
</svg>
