<svg width="189" height="49" viewBox="0 0 189 49" fill="none" xmlns="http://www.w3.org/2000/svg">
<path d="M70.3997 13.319C43.9056 16.4636 29.701 23.7587 1.5797 34.4732C19.0226 24.9082 28.8377 19.5655 45.9487 9.81616C55.5196 11.0296 60.8618 11.8753 70.3997 13.319Z" fill="black"/>
<path d="M37.8441 12.7008L0 34.2672C11.4962 25.7819 17.9369 20.9918 29.4649 12.7008H37.8441Z" fill="black"/>
<path d="M100.071 18.8823C91.2907 13.8965 58.2424 22.0256 2.06055 35.7095C47.7583 19.2388 73.459 8.95473 117.722 11.5332C108.885 20.1885 103.627 25.0757 94.3014 33.7864C99.794 24.4594 101.705 20.498 100.071 18.8823Z" fill="black"/>
<path d="M43.3339 30.0277C30.7413 29.8554 21.8016 35.4813 21.8016 35.4813C21.8016 35.4813 32.5072 30.9783 43.6684 32.4082C54.8296 33.838 62.4332 36.4824 74.4936 34.8037C82.1019 33.7446 88.0413 32.3053 93.3732 29.5147C75.5623 33.7538 55.9265 30.1999 43.3339 30.0277Z" fill="black"/>
<path d="M43.4418 35.5447C28.5026 33.3194 19.5066 39.9678 19.5066 39.9678C19.5066 39.9678 31.7662 35.722 42.9274 37.1518C54.0885 38.5817 59.6173 42.1657 71.9114 40.9984C79.5587 40.2723 85.4592 38.5 90.791 35.7094C72.9902 39.9461 58.3975 37.7725 43.4671 35.5485L43.4418 35.5447Z" fill="black"/>
<path d="M130.249 11.7285C130.249 11.6711 130.249 11.5453 130.249 11.351C130.253 11.1567 130.255 10.9316 130.255 10.6755C130.26 10.4194 130.262 10.1678 130.262 9.92053C130.262 9.67329 130.262 9.46579 130.262 9.29802C130.262 9.12583 130.26 9.03533 130.255 9.0265C130.132 8.73511 129.999 8.44592 129.858 8.15895C129.721 7.87197 129.584 7.58721 129.447 7.30465C129.12 6.59825 128.789 5.89626 128.454 5.19869C128.118 4.50112 127.781 3.80355 127.441 3.10598C127.401 3.02651 127.381 2.95808 127.381 2.90068C127.381 2.8168 127.416 2.76603 127.487 2.74837C127.558 2.72629 127.622 2.71525 127.679 2.71525H129.149C129.26 2.71525 129.343 2.77044 129.401 2.88082C129.494 3.05742 129.577 3.24726 129.653 3.45035C129.732 3.65344 129.811 3.8477 129.891 4.03313C130.085 4.50554 130.279 4.97794 130.474 5.45035C130.668 5.92275 130.867 6.39516 131.07 6.86756C131.079 6.88081 131.087 6.89847 131.096 6.92054C131.109 6.94262 131.125 6.95365 131.143 6.95365C131.165 6.95365 131.18 6.94262 131.189 6.92054C131.202 6.89405 131.211 6.87418 131.215 6.86094C131.414 6.38853 131.608 5.91613 131.798 5.44372C131.988 4.97132 132.178 4.50112 132.368 4.03313C132.438 3.86536 132.516 3.66889 132.6 3.44373C132.688 3.21856 132.769 3.03093 132.845 2.88082C132.906 2.77044 132.99 2.71525 133.096 2.71525H134.56C134.622 2.71525 134.688 2.72629 134.758 2.74837C134.829 2.76603 134.864 2.8168 134.864 2.90068C134.864 2.96249 134.845 3.03313 134.805 3.1126C134.447 3.84549 134.087 4.57618 133.725 5.30465C133.368 6.02871 133.012 6.75939 132.659 7.4967C132.536 7.74835 132.412 8.00222 132.288 8.25829C132.165 8.50994 132.045 8.76601 131.931 9.0265L131.924 9.05961C131.924 9.50111 131.926 9.94482 131.931 10.3907C131.935 10.8366 131.937 11.2826 131.937 11.7285C131.937 11.9095 131.847 12 131.666 12H130.52C130.339 12 130.249 11.9095 130.249 11.7285ZM137.26 12C137.198 12 137.132 11.9912 137.061 11.9735C136.991 11.9514 136.956 11.8985 136.956 11.8146C136.956 11.7792 136.962 11.7439 136.975 11.7086C136.989 11.6733 137.002 11.6402 137.015 11.6093C137.404 10.7704 137.788 9.93157 138.167 9.09272C138.552 8.25387 138.929 7.41061 139.3 6.56293C139.605 5.86536 139.907 5.16779 140.207 4.47022C140.507 3.76823 140.816 3.07287 141.134 2.38413C141.148 2.35764 141.17 2.34439 141.201 2.34439C141.231 2.34439 141.254 2.35764 141.267 2.38413C141.585 3.07287 141.894 3.76823 142.194 4.47022C142.494 5.16779 142.797 5.86536 143.101 6.56293C143.472 7.41061 143.847 8.25387 144.227 9.09272C144.611 9.93157 144.997 10.7704 145.386 11.6093C145.399 11.6402 145.412 11.6733 145.426 11.7086C145.439 11.7439 145.446 11.7792 145.446 11.8146C145.446 11.8985 145.41 11.9514 145.34 11.9735C145.269 11.9912 145.203 12 145.141 12H143.803C143.693 12 143.609 11.9448 143.552 11.8344C143.516 11.7638 143.483 11.6887 143.452 11.6093C143.421 11.5298 143.39 11.4547 143.359 11.3841C143.262 11.1634 143.167 10.9382 143.075 10.7086C142.986 10.479 142.892 10.2539 142.79 10.0331C142.777 9.9978 142.752 9.98014 142.717 9.98014H139.439C139.404 9.98014 139.379 9.9978 139.366 10.0331C139.26 10.2539 139.159 10.479 139.061 10.7086C138.969 10.9382 138.872 11.1656 138.77 11.3907C138.739 11.4614 138.706 11.5364 138.671 11.6159C138.64 11.6954 138.605 11.7704 138.565 11.8411C138.507 11.947 138.426 12 138.32 12H137.26ZM139.989 8.59603H142.194C142.017 8.15453 141.839 7.71524 141.658 7.27816C141.476 6.83666 141.295 6.39516 141.114 5.95366C140.929 6.39516 140.741 6.83666 140.552 7.27816C140.366 7.71524 140.178 8.15453 139.989 8.59603ZM154.1 9.91391C154.161 9.91391 154.208 9.93599 154.239 9.98014C154.274 10.0199 154.305 10.064 154.331 10.1126C154.358 10.1567 154.411 10.2605 154.49 10.4238C154.57 10.5828 154.645 10.7417 154.715 10.9007C154.786 11.0552 154.821 11.1501 154.821 11.1854C154.821 11.2517 154.784 11.3157 154.709 11.3775C154.395 11.6159 154.005 11.7969 153.537 11.9205C153.069 12.0397 152.638 12.0993 152.245 12.0993C151.318 12.0993 150.521 11.8896 149.855 11.4702C149.192 11.0508 148.682 10.4834 148.325 9.76822C147.972 9.05299 147.795 8.24946 147.795 7.35763C147.795 6.71745 147.888 6.1126 148.073 5.54306C148.263 4.96911 148.539 4.46359 148.901 4.02651C149.263 3.58501 149.707 3.24064 150.232 2.9934C150.762 2.74174 151.367 2.61592 152.047 2.61592C152.448 2.61592 152.877 2.6711 153.331 2.78148C153.786 2.89185 154.181 3.05742 154.517 3.27817C154.605 3.33556 154.649 3.40179 154.649 3.47684C154.649 3.49892 154.627 3.56293 154.583 3.66889C154.543 3.77485 154.495 3.89627 154.437 4.03313C154.38 4.16558 154.325 4.28699 154.272 4.39737C154.223 4.50774 154.19 4.58059 154.172 4.61591C154.15 4.66006 154.122 4.70642 154.086 4.75498C154.055 4.79913 154.009 4.82121 153.947 4.82121C153.908 4.82121 153.87 4.81238 153.835 4.79472C153.804 4.77264 153.771 4.75278 153.735 4.73512C153.484 4.57618 153.228 4.45035 152.967 4.35763C152.711 4.2605 152.431 4.21194 152.126 4.21194C151.716 4.21194 151.349 4.30465 151.027 4.49008C150.704 4.6711 150.431 4.91392 150.206 5.21856C149.985 5.52319 149.817 5.86094 149.702 6.2318C149.587 6.60266 149.53 6.97352 149.53 7.34438C149.53 7.90509 149.627 8.42606 149.821 8.90729C150.02 9.38411 150.32 9.77042 150.722 10.0662C151.124 10.3576 151.629 10.5033 152.239 10.5033C152.548 10.5033 152.832 10.4614 153.093 10.3775C153.358 10.2936 153.618 10.17 153.874 10.0066C153.91 9.98455 153.945 9.96468 153.98 9.94702C154.016 9.92495 154.055 9.91391 154.1 9.91391ZM165.568 2.71525C165.749 2.71525 165.84 2.80797 165.84 2.9934C165.84 3.21856 165.835 3.44373 165.826 3.66889C165.818 3.89406 165.811 4.11922 165.807 4.34439C165.798 4.81679 165.791 5.29141 165.787 5.76823C165.782 6.24505 165.78 6.71966 165.78 7.19206C165.78 7.69979 165.782 8.20972 165.787 8.72186C165.791 9.234 165.798 9.74614 165.807 10.2583C165.815 10.5011 165.824 10.7461 165.833 10.9934C165.842 11.2362 165.846 11.479 165.846 11.7219C165.846 11.9073 165.756 12 165.575 12H164.436C164.339 12 164.272 11.9779 164.237 11.9338C164.202 11.8896 164.177 11.8234 164.164 11.7351C164.155 11.6556 164.149 11.5453 164.144 11.404C164.144 11.2583 164.144 11.1104 164.144 10.9603C164.149 10.8102 164.151 10.6887 164.151 10.596C164.138 9.80133 164.131 9.00663 164.131 8.21193C164.131 8.15895 164.102 8.13246 164.045 8.13246H159.595C159.542 8.13246 159.515 8.15895 159.515 8.21193C159.515 9.00663 159.509 9.80133 159.495 10.596C159.495 10.6887 159.495 10.8102 159.495 10.9603C159.5 11.1104 159.502 11.2583 159.502 11.404C159.502 11.5453 159.495 11.6556 159.482 11.7351C159.469 11.8234 159.445 11.8896 159.409 11.9338C159.378 11.9779 159.312 12 159.211 12H158.065C157.884 12 157.793 11.9073 157.793 11.7219C157.793 11.479 157.798 11.2362 157.807 10.9934C157.82 10.7461 157.829 10.5011 157.833 10.2583C157.842 9.74614 157.849 9.234 157.853 8.72186C157.857 8.20972 157.86 7.69979 157.86 7.19206C157.86 6.71966 157.857 6.24505 157.853 5.76823C157.849 5.29141 157.842 4.81679 157.833 4.34439C157.829 4.11922 157.822 3.89406 157.813 3.66889C157.804 3.44373 157.8 3.21856 157.8 2.9934C157.8 2.80797 157.89 2.71525 158.072 2.71525H159.217C159.319 2.71525 159.385 2.73733 159.416 2.78148C159.451 2.82563 159.475 2.89185 159.489 2.98015C159.506 3.09936 159.511 3.28258 159.502 3.52982C159.498 3.77265 159.498 3.9647 159.502 4.10598C159.506 4.49891 159.509 4.89406 159.509 5.29141C159.513 5.68434 159.515 6.07728 159.515 6.47021C159.515 6.52319 159.544 6.54968 159.601 6.54968H164.045C164.102 6.54968 164.131 6.52319 164.131 6.47021C164.131 6.07728 164.131 5.68434 164.131 5.29141C164.136 4.89406 164.14 4.49891 164.144 4.10598C164.149 3.9647 164.147 3.77265 164.138 3.52982C164.133 3.28258 164.14 3.09936 164.158 2.98015C164.171 2.89185 164.195 2.82563 164.23 2.78148C164.266 2.73733 164.332 2.71525 164.429 2.71525H165.568ZM168.706 2.9934C168.706 2.80797 168.796 2.71525 168.977 2.71525H174.593C174.774 2.71525 174.865 2.80797 174.865 2.9934C174.865 3.16558 174.865 3.34218 174.865 3.5232C174.869 3.6998 174.865 3.87419 174.851 4.04638C174.838 4.22298 174.748 4.31128 174.58 4.31128H172.659C172.606 4.31128 172.58 4.33777 172.58 4.39075C172.58 4.85874 172.578 5.32673 172.573 5.79472C172.573 6.25829 172.573 6.72407 172.573 7.19206C172.573 7.94703 172.575 8.7042 172.58 9.46358C172.584 10.2185 172.586 10.9735 172.586 11.7285C172.586 11.9095 172.496 12 172.315 12H171.169C170.988 12 170.898 11.9095 170.898 11.7285C170.898 10.9514 170.9 10.1744 170.904 9.39736C170.913 8.62032 170.918 7.84548 170.918 7.07286L170.911 4.39075C170.911 4.33777 170.882 4.31128 170.825 4.31128H168.99C168.823 4.31128 168.732 4.22298 168.719 4.04638C168.706 3.87419 168.699 3.6998 168.699 3.5232C168.703 3.34218 168.706 3.16558 168.706 2.9934ZM135.745 17.7153C135.926 17.7153 136.017 17.808 136.017 17.9934C136.017 18.2186 136.012 18.4437 136.003 18.6689C135.995 18.8941 135.988 19.1192 135.984 19.3444C135.975 19.8168 135.968 20.2914 135.964 20.7682C135.959 21.245 135.957 21.7197 135.957 22.1921C135.957 22.6998 135.959 23.2097 135.964 23.7219C135.968 24.234 135.975 24.7461 135.984 25.2583C135.992 25.5011 136.001 25.7461 136.01 25.9934C136.019 26.2362 136.023 26.479 136.023 26.7219C136.023 26.9073 135.933 27 135.752 27H134.613C134.516 27 134.449 26.9779 134.414 26.9338C134.379 26.8896 134.354 26.8234 134.341 26.7351C134.332 26.6556 134.326 26.5453 134.321 26.404C134.321 26.2583 134.321 26.1104 134.321 25.9603C134.326 25.8102 134.328 25.6887 134.328 25.596C134.315 24.8013 134.308 24.0066 134.308 23.2119C134.308 23.1589 134.279 23.1325 134.222 23.1325H129.772C129.719 23.1325 129.692 23.1589 129.692 23.2119C129.692 24.0066 129.686 24.8013 129.672 25.596C129.672 25.6887 129.672 25.8102 129.672 25.9603C129.677 26.1104 129.679 26.2583 129.679 26.404C129.679 26.5453 129.672 26.6556 129.659 26.7351C129.646 26.8234 129.622 26.8896 129.586 26.9338C129.555 26.9779 129.489 27 129.388 27H128.242C128.061 27 127.97 26.9073 127.97 26.7219C127.97 26.479 127.975 26.2362 127.984 25.9934C127.997 25.7461 128.006 25.5011 128.01 25.2583C128.019 24.7461 128.026 24.234 128.03 23.7219C128.034 23.2097 128.037 22.6998 128.037 22.1921C128.037 21.7197 128.034 21.245 128.03 20.7682C128.026 20.2914 128.019 19.8168 128.01 19.3444C128.006 19.1192 127.999 18.8941 127.99 18.6689C127.981 18.4437 127.977 18.2186 127.977 17.9934C127.977 17.808 128.068 17.7153 128.249 17.7153H129.394C129.496 17.7153 129.562 17.7373 129.593 17.7815C129.628 17.8256 129.653 17.8919 129.666 17.9802C129.683 18.0994 129.688 18.2826 129.679 18.5298C129.675 18.7726 129.675 18.9647 129.679 19.106C129.683 19.4989 129.686 19.8941 129.686 20.2914C129.69 20.6843 129.692 21.0773 129.692 21.4702C129.692 21.5232 129.721 21.5497 129.778 21.5497H134.222C134.279 21.5497 134.308 21.5232 134.308 21.4702C134.308 21.0773 134.308 20.6843 134.308 20.2914C134.313 19.8941 134.317 19.4989 134.321 19.106C134.326 18.9647 134.324 18.7726 134.315 18.5298C134.31 18.2826 134.317 18.0994 134.335 17.9802C134.348 17.8919 134.372 17.8256 134.407 17.7815C134.443 17.7373 134.509 17.7153 134.606 17.7153H135.745ZM140.903 22.0331C140.903 22.298 140.9 22.5629 140.896 22.8278C140.896 23.0883 140.896 23.3488 140.896 23.6093C140.896 24.0066 140.991 24.3466 141.181 24.6291C141.375 24.9073 141.631 25.1214 141.949 25.2715C142.267 25.4172 142.611 25.4901 142.982 25.4901C143.56 25.4901 144.048 25.3289 144.446 25.0066C144.843 24.6843 145.042 24.2185 145.042 23.6093C145.042 23.3488 145.039 23.0883 145.035 22.8278C145.035 22.5629 145.035 22.298 145.035 22.0331C145.035 21.574 145.035 21.1148 145.035 20.6556C145.039 20.1965 145.044 19.7373 145.048 19.2782L145.055 18.3047L145.061 17.9802C145.07 17.8919 145.092 17.8256 145.128 17.7815C145.167 17.7373 145.236 17.7153 145.333 17.7153H146.452C146.633 17.7153 146.724 17.808 146.724 17.9934C146.724 18.2362 146.719 18.479 146.71 18.7219C146.706 18.9603 146.699 19.1987 146.691 19.4371C146.677 20.351 146.671 21.2627 146.671 22.1722C146.671 22.415 146.671 22.6601 146.671 22.9073C146.675 23.1545 146.677 23.4018 146.677 23.649C146.673 24.3554 146.501 24.9669 146.161 25.4834C145.825 26 145.377 26.3996 144.816 26.6821C144.256 26.9603 143.633 27.0993 142.949 27.0993C142.269 27.0993 141.646 26.9603 141.081 26.6821C140.521 26.3996 140.073 26 139.737 25.4834C139.401 24.9669 139.234 24.3554 139.234 23.649C139.234 23.4018 139.234 23.1545 139.234 22.9073C139.238 22.6601 139.24 22.415 139.24 22.1722C139.24 21.2627 139.234 20.351 139.22 19.4371C139.216 19.1987 139.209 18.9603 139.201 18.7219C139.192 18.479 139.187 18.2362 139.187 17.9934C139.187 17.808 139.278 17.7153 139.459 17.7153H140.605C140.702 17.7153 140.768 17.7373 140.803 17.7815C140.843 17.8256 140.867 17.8919 140.876 17.9802L140.883 18.3047L140.889 19.2782C140.894 19.7373 140.896 20.1965 140.896 20.6556C140.9 21.1148 140.903 21.574 140.903 22.0331ZM149.894 17.9934C149.894 17.808 149.985 17.7153 150.166 17.7153H152.848C153.236 17.7153 153.634 17.7484 154.04 17.8146C154.451 17.8808 154.828 18 155.172 18.1722C155.521 18.34 155.802 18.5784 156.014 18.8874C156.23 19.1921 156.338 19.5828 156.338 20.0596C156.338 20.4923 156.245 20.872 156.06 21.1987C155.879 21.521 155.612 21.8013 155.259 22.0397C155.245 22.0486 155.23 22.0596 155.212 22.0729C155.195 22.0817 155.186 22.0971 155.186 22.1192C155.186 22.1369 155.195 22.1523 155.212 22.1656C155.234 22.1788 155.252 22.1899 155.265 22.1987C155.715 22.4239 156.093 22.702 156.398 23.0331C156.702 23.3642 156.855 23.7991 156.855 24.3378C156.855 24.8455 156.749 25.2715 156.537 25.6159C156.325 25.9559 156.042 26.2274 155.689 26.4305C155.34 26.6336 154.952 26.7792 154.523 26.8675C154.1 26.9558 153.674 27 153.245 27H150.159C149.978 27 149.888 26.9073 149.888 26.7219C149.888 26.4746 149.892 26.2274 149.901 25.9801C149.91 25.7285 149.916 25.479 149.921 25.2318C149.934 24.2384 149.941 23.245 149.941 22.2517C149.941 21.3245 149.934 20.3974 149.921 19.4702C149.916 19.223 149.91 18.9757 149.901 18.7285C149.897 18.4813 149.894 18.2362 149.894 17.9934ZM151.596 21.596H153.139C153.382 21.596 153.616 21.5563 153.841 21.4768C154.071 21.3929 154.259 21.2627 154.404 21.0861C154.55 20.9095 154.623 20.6843 154.623 20.4106C154.623 20.106 154.532 19.8764 154.351 19.7219C154.17 19.5629 153.949 19.4548 153.689 19.3974C153.429 19.34 153.177 19.3113 152.934 19.3113H151.59C151.594 19.691 151.596 20.0729 151.596 20.457C151.596 20.8367 151.596 21.2163 151.596 21.596ZM151.59 25.457H153.206C153.391 25.457 153.594 25.4415 153.815 25.4106C154.036 25.3797 154.245 25.3223 154.444 25.2384C154.647 25.1545 154.813 25.0375 154.941 24.8874C155.073 24.7329 155.139 24.5364 155.139 24.298C155.139 24.0508 155.066 23.8543 154.921 23.7086C154.775 23.5585 154.59 23.4459 154.365 23.3709C154.144 23.2958 153.914 23.2472 153.676 23.2252C153.437 23.1987 153.228 23.1854 153.047 23.1854H151.596C151.596 23.5607 151.596 23.9382 151.596 24.3179C151.596 24.6976 151.594 25.0773 151.59 25.457ZM128.242 42C128.061 42 127.97 41.9073 127.97 41.7219C127.97 41.4879 127.975 41.2561 127.984 41.0265C127.992 40.7925 127.999 40.5607 128.004 40.3311C128.012 39.819 128.019 39.3091 128.023 38.8013C128.032 38.2892 128.037 37.7793 128.037 37.2715C128.037 36.7815 128.034 36.2914 128.03 35.8013C128.026 35.3113 128.019 34.8212 128.01 34.3311C128.006 34.1104 127.999 33.8874 127.99 33.6623C127.981 33.4371 127.977 33.2141 127.977 32.9934C127.977 32.808 128.068 32.7153 128.249 32.7153H130.732C131.474 32.7153 132.171 32.8212 132.825 33.0331C133.483 33.2451 134.054 33.5828 134.54 34.0464C135.026 34.5055 135.383 35.1104 135.613 35.8609C135.776 36.3996 135.858 36.947 135.858 37.5033C135.858 38.4084 135.652 39.1987 135.242 39.8742C134.836 40.5453 134.279 41.0684 133.573 41.4437C132.871 41.8146 132.076 42 131.189 42H128.242ZM129.672 40.404H130.898C131.882 40.404 132.668 40.1457 133.255 39.6291C133.847 39.1082 134.143 38.3422 134.143 37.3311C134.143 36.7572 134.021 36.2428 133.778 35.7881C133.535 35.3289 133.196 34.9669 132.758 34.702C132.321 34.4371 131.809 34.3047 131.222 34.3047H129.679C129.683 34.7726 129.686 35.2428 129.686 35.7152C129.69 36.1877 129.692 36.6601 129.692 37.1325C129.692 38.2186 129.686 39.3091 129.672 40.404ZM140.426 37.0331C140.426 37.298 140.424 37.5629 140.419 37.8278C140.419 38.0883 140.419 38.3488 140.419 38.6093C140.419 39.0066 140.514 39.3466 140.704 39.6291C140.898 39.9073 141.154 40.1214 141.472 40.2715C141.79 40.4172 142.134 40.4901 142.505 40.4901C143.084 40.4901 143.571 40.3289 143.969 40.0066C144.366 39.6843 144.565 39.2185 144.565 38.6093C144.565 38.3488 144.563 38.0883 144.558 37.8278C144.558 37.5629 144.558 37.298 144.558 37.0331C144.558 36.574 144.558 36.1148 144.558 35.6556C144.563 35.1965 144.567 34.7373 144.571 34.2782L144.578 33.3047L144.585 32.9802C144.593 32.8919 144.616 32.8256 144.651 32.7815C144.691 32.7373 144.759 32.7153 144.856 32.7153H145.975C146.156 32.7153 146.247 32.808 146.247 32.9934C146.247 33.2362 146.242 33.479 146.234 33.7219C146.229 33.9603 146.223 34.1987 146.214 34.4371C146.201 35.351 146.194 36.2627 146.194 37.1722C146.194 37.415 146.194 37.6601 146.194 37.9073C146.198 38.1545 146.201 38.4018 146.201 38.649C146.196 39.3554 146.024 39.9669 145.684 40.4834C145.348 41 144.9 41.3996 144.34 41.6821C143.779 41.9603 143.156 42.0993 142.472 42.0993C141.792 42.0993 141.17 41.9603 140.605 41.6821C140.044 41.3996 139.596 41 139.26 40.4834C138.925 39.9669 138.757 39.3554 138.757 38.649C138.757 38.4018 138.757 38.1545 138.757 37.9073C138.761 37.6601 138.763 37.415 138.763 37.1722C138.763 36.2627 138.757 35.351 138.744 34.4371C138.739 34.1987 138.733 33.9603 138.724 33.7219C138.715 33.479 138.71 33.2362 138.71 32.9934C138.71 32.808 138.801 32.7153 138.982 32.7153H140.128C140.225 32.7153 140.291 32.7373 140.326 32.7815C140.366 32.8256 140.39 32.8919 140.399 32.9802L140.406 33.3047L140.412 34.2782C140.417 34.7373 140.419 35.1965 140.419 35.6556C140.424 36.1148 140.426 36.574 140.426 37.0331ZM149.417 32.9934C149.417 32.808 149.508 32.7153 149.689 32.7153H152.371C152.76 32.7153 153.157 32.7484 153.563 32.8146C153.974 32.8808 154.351 33 154.696 33.1722C155.044 33.34 155.325 33.5784 155.537 33.8874C155.753 34.1921 155.861 34.5828 155.861 35.0596C155.861 35.4923 155.768 35.872 155.583 36.1987C155.402 36.521 155.135 36.8013 154.782 37.0397C154.768 37.0486 154.753 37.0596 154.735 37.0729C154.718 37.0817 154.709 37.0971 154.709 37.1192C154.709 37.1369 154.718 37.1523 154.735 37.1656C154.757 37.1788 154.775 37.1899 154.788 37.1987C155.239 37.4239 155.616 37.702 155.921 38.0331C156.225 38.3642 156.378 38.7991 156.378 39.3378C156.378 39.8455 156.272 40.2715 156.06 40.6159C155.848 40.9559 155.565 41.2274 155.212 41.4305C154.863 41.6336 154.475 41.7792 154.047 41.8675C153.623 41.9558 153.197 42 152.768 42H149.682C149.501 42 149.411 41.9073 149.411 41.7219C149.411 41.4746 149.415 41.2274 149.424 40.9801C149.433 40.7285 149.44 40.479 149.444 40.2318C149.457 39.2384 149.464 38.245 149.464 37.2517C149.464 36.3245 149.457 35.3974 149.444 34.4702C149.44 34.223 149.433 33.9757 149.424 33.7285C149.42 33.4813 149.417 33.2362 149.417 32.9934ZM151.119 36.596H152.663C152.905 36.596 153.139 36.5563 153.365 36.4768C153.594 36.3929 153.782 36.2627 153.927 36.0861C154.073 35.9095 154.146 35.6843 154.146 35.4106C154.146 35.106 154.055 34.8764 153.874 34.7219C153.693 34.5629 153.473 34.4548 153.212 34.3974C152.952 34.34 152.7 34.3113 152.457 34.3113H151.113C151.117 34.691 151.119 35.0729 151.119 35.457C151.119 35.8367 151.119 36.2163 151.119 36.596ZM151.113 40.457H152.729C152.914 40.457 153.117 40.4415 153.338 40.4106C153.559 40.3797 153.768 40.3223 153.967 40.2384C154.17 40.1545 154.336 40.0375 154.464 39.8874C154.596 39.7329 154.663 39.5364 154.663 39.298C154.663 39.0508 154.59 38.8543 154.444 38.7086C154.298 38.5585 154.113 38.4459 153.888 38.3709C153.667 38.2958 153.437 38.2472 153.199 38.2252C152.961 38.1987 152.751 38.1854 152.57 38.1854H151.119C151.119 38.5607 151.119 38.9382 151.119 39.3179C151.119 39.6976 151.117 40.0773 151.113 40.457ZM159.032 42C158.97 42 158.904 41.9912 158.833 41.9735C158.762 41.9514 158.727 41.8985 158.727 41.8146C158.727 41.7792 158.734 41.7439 158.747 41.7086C158.76 41.6733 158.773 41.6402 158.787 41.6093C159.175 40.7704 159.559 39.9316 159.939 39.0927C160.323 38.2539 160.701 37.4106 161.072 36.5629C161.376 35.8654 161.679 35.1678 161.979 34.4702C162.279 33.7682 162.588 33.0729 162.906 32.3841C162.919 32.3576 162.941 32.3444 162.972 32.3444C163.003 32.3444 163.025 32.3576 163.038 32.3841C163.356 33.0729 163.665 33.7682 163.966 34.4702C164.266 35.1678 164.568 35.8654 164.873 36.5629C165.244 37.4106 165.619 38.2539 165.999 39.0927C166.383 39.9316 166.769 40.7704 167.158 41.6093C167.171 41.6402 167.184 41.6733 167.197 41.7086C167.211 41.7439 167.217 41.7792 167.217 41.8146C167.217 41.8985 167.182 41.9514 167.111 41.9735C167.041 41.9912 166.974 42 166.913 42H165.575C165.464 42 165.381 41.9448 165.323 41.8344C165.288 41.7638 165.255 41.6887 165.224 41.6093C165.193 41.5298 165.162 41.4547 165.131 41.3841C165.034 41.1634 164.939 40.9382 164.846 40.7086C164.758 40.479 164.663 40.2539 164.562 40.0331C164.548 39.9978 164.524 39.9801 164.489 39.9801H161.211C161.175 39.9801 161.151 39.9978 161.138 40.0331C161.032 40.2539 160.93 40.479 160.833 40.7086C160.74 40.9382 160.643 41.1656 160.542 41.3907C160.511 41.4614 160.478 41.5364 160.442 41.6159C160.411 41.6954 160.376 41.7704 160.336 41.8411C160.279 41.947 160.197 42 160.091 42H159.032ZM161.76 38.596H163.966C163.789 38.1545 163.61 37.7152 163.429 37.2782C163.248 36.8367 163.067 36.3952 162.886 35.9537C162.701 36.3952 162.513 36.8367 162.323 37.2782C162.138 37.7152 161.95 38.1545 161.76 38.596ZM169.831 32.9868C169.831 32.8058 169.922 32.7153 170.103 32.7153H171.249C171.43 32.7153 171.52 32.8058 171.52 32.9868C171.52 33.7153 171.518 34.4437 171.514 35.1722C171.509 35.9007 171.507 36.6292 171.507 37.3576C171.507 38.0861 171.509 38.8146 171.514 39.5431C171.518 40.2715 171.52 41 171.52 41.7285C171.52 41.9095 171.43 42 171.249 42H170.103C169.922 42 169.831 41.9095 169.831 41.7285C169.831 41 169.834 40.2715 169.838 39.5431C169.843 38.8146 169.845 38.0861 169.845 37.3576C169.845 36.6292 169.843 35.9007 169.838 35.1722C169.834 34.4437 169.831 33.7153 169.831 32.9868Z" fill="black"/>
</svg>
