<svg width="27" height="28" viewBox="0 0 27 28" fill="none" xmlns="http://www.w3.org/2000/svg">
<path d="M20.2314 8.12909C20.1639 8.11774 20.0852 8.11774 20.0178 8.12909C18.4668 8.07233 17.2305 6.78934 17.2305 5.1998C17.2305 3.5762 18.523 2.27051 20.1302 2.27051C21.7374 2.27051 23.0299 3.58755 23.0299 5.1998C23.0187 6.78934 21.7824 8.07233 20.2314 8.12909Z" stroke="black" stroke-width="2" stroke-linecap="round" stroke-linejoin="round"/>
<path d="M19.0728 16.3951C20.6126 16.6562 22.3097 16.3837 23.5011 15.5776C25.0858 14.5103 25.0858 12.7618 23.5011 11.6946C22.2985 10.8885 20.5788 10.616 19.0391 10.8885" stroke="black" stroke-width="2" stroke-linecap="round" stroke-linejoin="round"/>
<path d="M6.70874 8.12909C6.77618 8.11774 6.85485 8.11774 6.92229 8.12909C8.47331 8.07233 9.70963 6.78934 9.70963 5.1998C9.70963 3.5762 8.41711 2.27051 6.80989 2.27051C5.20267 2.27051 3.91016 3.58755 3.91016 5.1998C3.9214 6.78934 5.15772 8.07233 6.70874 8.12909Z" stroke="black" stroke-width="2" stroke-linecap="round" stroke-linejoin="round"/>
<path d="M7.86684 16.3951C6.32705 16.6562 4.62992 16.3837 3.43856 15.5776C1.85382 14.5103 1.85382 12.7618 3.43856 11.6946C4.64116 10.8885 6.36077 10.616 7.90055 10.8885" stroke="black" stroke-width="2" stroke-linecap="round" stroke-linejoin="round"/>
<path d="M13.4873 16.6106C13.4198 16.5992 13.3412 16.5992 13.2737 16.6106C11.7227 16.5538 10.4863 15.2708 10.4863 13.6813C10.4863 12.0577 11.7789 10.752 13.3861 10.752C14.9933 10.752 16.2858 12.069 16.2858 13.6813C16.2746 15.2708 15.0383 16.5652 13.4873 16.6106Z" stroke="black" stroke-width="2" stroke-linecap="round" stroke-linejoin="round"/>
<path d="M10.2159 20.1871C8.63116 21.2543 8.63116 23.0028 10.2159 24.0701C12.0142 25.2849 14.9589 25.2849 16.7572 24.0701C18.3419 23.0028 18.3419 21.2543 16.7572 20.1871C14.9702 18.9835 12.0142 18.9835 10.2159 20.1871Z" stroke="black" stroke-width="2" stroke-linecap="round" stroke-linejoin="round"/>
</svg>
